<svg xmlns="http://www.w3.org/2000/svg" viewBox="0 0 252.59 140"><defs><style>.cls-1{fill:#f2f2f2;}.cls-2{fill:red;}</style></defs><title>Asset 2</title><g id="Layer_2" data-name="Layer 2"><g id="Scarlet-Logo"><path class="cls-1" d="M0,133.7l1.88-2.15c4.25,3.92,8.18,5.75,13.87,5.75s9.78-3.26,9.78-7.68v-.11c0-4.09-2.15-6.46-10.94-8.23-9.28-1.88-13-5-13-10.88v-.11c0-5.75,5.25-10.17,12.43-10.17a19.28,19.28,0,0,1,13.26,4.7l-1.82,2.26a16.65,16.65,0,0,0-11.55-4.36c-5.69,0-9.45,3.26-9.45,7.29v.11c0,4.09,2.1,6.57,11.27,8.45,9,1.82,12.71,5,12.71,10.66v.11c0,6.24-5.36,10.55-12.82,10.55C9.39,139.89,4.64,137.85,0,133.7Z"/><path class="cls-1" d="M34.28,120.11V120c0-10.94,8.18-20,19.34-20,6.91,0,11,2.54,15,6.19l-2,2.1c-3.37-3.26-7.24-5.69-13-5.69-9.28,0-16.3,7.57-16.3,17.29V120c0,9.78,7.13,17.4,16.35,17.4,5.58,0,9.39-2.15,13.31-6l1.93,1.88c-4.09,4-8.51,6.74-15.36,6.74C42.46,140,34.28,131.22,34.28,120.11Z"/><path class="cls-1" d="M90.64,100.39H93.4l18,39h-3.15l-4.92-10.83H80.53l-4.92,10.83h-3Zm11.49,25.52L92,103.54,81.74,125.91Z"/><path class="cls-1" d="M118.09,100.66h16.24c4.75,0,8.56,1.49,10.88,3.81a10.2,10.2,0,0,1,2.93,7.18v.11c0,6.46-4.81,10.17-11.33,11.05l12.76,16.52h-3.65l-12.32-16H121v16h-2.87ZM134,120.72c6.46,0,11.27-3.26,11.27-8.84v-.11c0-5.19-4.09-8.45-11.11-8.45H121v17.4Z"/><path class="cls-1" d="M156.84,100.66h2.87v36h22.71v2.65H156.84Z"/><path class="cls-1" d="M189.27,100.66h27.51v2.65H192.15v15.19H214.3v2.65H192.15v15.52h24.92v2.65H189.27Z"/><path class="cls-1" d="M236.24,103.31H222.76v-2.65h29.83v2.65H239.11v36h-2.87Z"/><polygon class="cls-2" points="149.57 0 109.91 56.67 96.47 47.27 129.57 0 149.57 0"/><polygon class="cls-2" points="103.02 80 142.69 23.33 156.12 32.73 123.02 80 103.02 80"/></g></g></svg>