<?xml version="1.0" encoding="utf-8"?>
<!DOCTYPE svg PUBLIC "-//W3C//DTD SVG 1.1//EN" "http://www.w3.org/Graphics/SVG/1.1/DTD/svg11.dtd">
<svg version="1.1" id="RED" xmlns="http://www.w3.org/2000/svg" xmlns:xlink="http://www.w3.org/1999/xlink" x="0px" y="0px" width="52px" height="17.748px" viewBox="0 0 52 17.748" enable-background="new 0 0 52 17.748" xml:space="preserve">
<g>
	<path fill="#ff0000" d="M15.745,6.11V6.06c0-1.75-0.532-3.119-1.572-4.133C12.982,0.709,11.105,0,8.393,0H0v17.748h4.918v-5.375 h2.156l3.575,5.375h5.68l-4.235-6.187C14.3,10.624,15.745,8.823,15.745,6.11z M10.801,6.415c0,1.293-0.963,2.104-2.637,2.104 H4.919V4.26h3.22c1.648,0,2.663,0.709,2.663,2.104L10.801,6.415L10.801,6.415z M23.097,10.75h8.519V6.871h-8.519V4.183h9.407V0 H18.229v17.748H32.63v-4.184h-9.534V10.75z M41.985,0h-6.846v17.748h6.744c6.39,0,10.116-3.803,10.116-8.925v-0.05 C52,3.65,48.324,0,41.985,0z M46.955,8.899c0,2.865-1.953,4.488-4.894,4.488h-2.003V4.361h2.003c2.94,0,4.894,1.648,4.894,4.488 V8.899z"/>
</g>
</svg>
