<svg xmlns="http://www.w3.org/2000/svg" viewBox="0 0 347.75 80"><defs><style>.cls-1{fill:#f2f2f2;}.cls-2{fill:red;}</style></defs><title>Asset 1</title><g id="Layer_2" data-name="Layer 2"><g id="Scarlet-Logo"><g id="RED_White" data-name="RED White"><path class="cls-1" d="M122.5,0h37.83C172.55,0,181,3.2,186.38,8.69c4.69,4.57,7.09,10.74,7.09,18.63v.23c0,12.23-6.51,20.34-16.46,24.57L196.1,80H170.5L154.38,55.77h-9.71V80H122.5Zm36.8,38.4c7.54,0,11.89-3.66,11.89-9.49v-.23c0-6.29-4.57-9.49-12-9.49H144.67V38.4Z"/><path class="cls-1" d="M200.1,0h64.34V18.86H222V31h38.4V48.46H222V61.14h43V80H200.1Z"/><path class="cls-1" d="M271.75,0h30.86c28.57,0,45.14,16.46,45.14,39.54v.23c0,23.09-16.8,40.23-45.6,40.23h-30.4Zm31.2,60.34C316.21,60.34,325,53,325,40.11v-.23c0-12.8-8.8-20.23-22.06-20.23h-9V60.34Z"/><polygon class="cls-2" points="0 0 0 80 64.92 80 51.59 60.8 19.2 60.8 19.2 19.2 83.99 19.2 83.99 80 103.19 80 103.19 0 0 0"/></g></g></g></svg>